<?xml version="1.0" encoding="UTF-8"?>
<!DOCTYPE svg PUBLIC "-//W3C//DTD SVG 1.1//EN" "http://www.w3.org/Graphics/SVG/1.1/DTD/svg11.dtd">
<svg version="1.1" xmlns="http://www.w3.org/2000/svg" xmlns:xlink="http://www.w3.org/1999/xlink" x="0" y="0" width="234" height="550" viewBox="0, 0, 234, 550">
  <g id="Layer_1">
    <path d="M55.701,229.133 C52.914,227.702 49.879,226.556 47.711,224.277 C42.922,218.941 46.008,210.666 46.076,203.529 C46.232,197.734 43.971,191.963 40.185,187.636 C35.831,182.811 29.718,179.85 25.872,174.585 C21.136,168.036 20.972,159.436 19.772,151.442 C18.575,143.447 14.954,135.479 7.258,133.025 L7.291,354.223 L67.441,241.954 C65.097,236.995 60.584,231.775 55.701,229.137 z" fill="#F4B865" id="path4885"/>
    <path d="M212.98,56.919 C205.681,40.042 166.412,-12.806 93.991,5.014 C20.108,23.198 20.819,93.252 20.819,93.252 C20.819,93.252 4.674,99.428 1.946,119.251 C-1.156,141.657 19.942,151.436 19.942,151.436 L21.905,164.894 C22.436,168.897 25.165,173.561 26.038,174.579 C29.884,179.844 35.999,182.805 40.354,187.63 C44.27,191.948 46.403,197.727 46.245,203.523 C46.177,210.66 43.087,218.935 47.88,224.271 C49.913,226.559 53.085,227.696 55.868,229.127 C60.753,231.766 64.786,235.806 67.263,240.755 L67.738,241.799 C71.265,240.222 73.49,239.268 76.279,236.662 C78.941,234.2 80.883,230.976 83.402,228.389 C87.32,224.498 92.695,222.396 98.081,222.445 C105.083,222.523 111.929,226.377 118.862,225.382 C133.133,223.501 139.768,203.689 154.175,201.798 C158.31,201.257 162.685,202.315 166.837,202.042 C166.837,202.042 169.651,201.856 172.099,200.215 C174.038,199.01 176.658,195.878 176.658,195.878 C176.658,195.878 190.875,197.23 210.129,187.216 C251.764,165.638 222.115,121.978 222.115,121.978 C229.837,102.363 220.279,73.66 212.984,56.919 z" fill="#F08895" id="path4887"/>
    <path d="M20.401,152.214 C35.028,157.711 42.71,166.084 54.671,172.023 C85.257,186.963 108.135,176.846 129.184,177.746 C145.377,178.43 153.209,185.044 157.735,188.381 C164.092,192.94 168.421,195.346 176.673,196.014 C176.673,196.014 174.044,199.012 172.112,200.35 C169.667,201.992 166.852,202.177 166.852,202.177 C162.842,202.575 158.332,201.527 154.19,201.934 C139.905,203.683 133.147,223.638 118.876,225.519 C111.935,226.378 105.099,222.658 98.095,222.58 C92.711,222.532 87.2,224.644 83.418,228.526 C80.764,231.123 78.957,234.336 76.293,236.799 C73.504,239.405 71.424,240.484 67.754,241.936 L67.279,240.89 C64.8,235.94 60.759,231.767 55.883,229.262 C53.1,227.831 50.065,226.686 47.895,224.407 C43.104,219.071 46.194,210.794 46.262,203.659 C46.418,197.863 44.153,192.091 40.371,187.765 C36.016,182.939 29.9,179.978 26.055,174.715 C25.172,173.562 22.586,169.023 21.92,165.03 L19.957,151.571 L20.401,152.214 z" fill="#ED6F75" id="path4889"/>
    <path d="M8.001,546.581 C7.952,509.046 7.771,471.518 7.712,433.852 C7.651,410.444 7.587,387.037 7.526,363.628 C7.52,351.251 7.51,338.873 7.37,326.503 C7.395,316.679 6.745,304.747 15.44,297.852 C19.659,294.48 25.348,293.029 29.557,289.522 C37.477,283.082 38.602,271.569 43.11,262.393 C46.546,255.304 52.344,249.406 59.237,245.723 C64.962,242.79 71.448,241.152 76.137,236.807 C78.803,234.344 80.742,231.121 83.264,228.534 C87.178,224.643 92.557,222.54 97.939,222.588 C104.943,222.666 111.789,226.52 118.72,225.527 C132.991,223.644 139.628,203.833 154.034,201.942 C159.768,201.161 165.979,203.577 171.057,200.957 C173.272,199.869 174.889,197.879 176.651,196.014 C181.557,190.847 187.858,186.395 194.71,184.196 C197.872,183.18 201.716,182.254 205.116,182.837 C210.284,183.708 209.436,185.11 207.298,189.422 C205.634,192.759 203.693,195.983 201.888,199.196 C196.109,209.533 190.339,220.004 184.429,230.35 C166.978,261.638 149.523,292.791 132.206,324.071 C112.349,359.688 92.494,395.305 72.631,430.791 C56.746,459.285 40.86,487.778 24.977,516.272 C19.325,526.466 13.663,536.526 8.001,546.586 z" fill="#F3B866" id="path4891"/>
    <path d="M222,122.254 C220.557,126.923 213.781,134.366 203.461,139.083 C193.15,143.932 181.033,143.788 170.068,140.743 C162.533,138.682 155.31,135.257 147.496,135.097 C139.549,134.948 131.848,138.549 124.824,142.241 C111.431,149.312 98.117,157.59 83.2,159.915 C65.614,162.553 46.759,156.127 34.721,142.927 C22.684,129.725 16.975,110.458 21.08,93.099 C23.621,107.194 28.166,121.023 37.105,132.141 C46.044,143.258 60.668,150.771 74.726,147.693 C80.695,146.359 86.144,143.309 91.172,140.017 C99.305,134.773 107.106,128.608 114.07,121.961 C120.781,115.598 127.039,108.46 134.187,102.606 C141.337,96.753 149.894,91.884 159.113,90.874 C169.002,89.82 179.304,93.042 188.488,89.479 C197.019,86.226 202.636,77.513 204.877,68.62 C207.09,59.325 205.535,50.009 202.461,40.121 C202.461,40.121 213.813,51.079 221.531,80.441 C224.819,93.544 226.317,108.111 222,122.254 z" fill="#ED6F75" id="path4893"/>
    <path d="M31.701,70.066 C31.701,70.066 19.051,94.581 37.756,123.218 C56.461,151.857 89.838,135.667 103.376,116.476 C103.376,116.476 69.99,140.74 51.137,122.068 C28.811,99.724 31.701,70.066 31.701,70.066 z" fill="#F7BEC1" id="path4895"/>
    <path d="M133.92,102.624 C133.92,102.624 143.25,93.13 157.947,87.453 C172.642,81.777 184.357,61.495 169.957,36.879 C150.828,3.83 110.746,2.028 110.746,2.028 C110.746,2.028 163.375,-7.895 202.336,40.263 C202.336,40.263 215.654,70.871 193.678,86.58 C175.059,100.051 162.641,79.071 133.92,102.624 z" fill="#EB6277" id="path4897"/>
    <path d="M148.14,30.51 C139.74,25.547 129.702,24.324 119.87,24.164 C114.62,24.106 91.098,24.444 86.467,25.69 C80.912,27.131 73.694,29.895 66.705,38.159 C58.355,48.261 50.976,58.839 46.824,71.356 C44.676,77.553 43.355,84.097 43.922,90.653 C44.498,97.342 48.08,104.777 54.627,106.093 C61.316,107.537 67.418,102.156 71.641,96.766 C75.118,92.367 84.954,76.245 96.351,71.594 C100.935,69.677 105.712,68.69 110.697,68.764 C117.031,68.886 123.371,69.14 129.738,69.798 C136.105,70.454 142.633,71.505 148.689,69.492 C155.138,67.318 160.136,61.472 161.177,54.811 C162.827,45.151 156.54,35.473 148.14,30.51 z" fill="#F3A2B1" id="path4899"/>
    <path d="M5.901,128.814 C7.085,134.522 10.768,139.392 15.563,142.71 C20.223,146.036 25.872,148.085 31.481,149.466 C27.237,148.399 22.137,140.394 20.024,136.9 C16.999,131.85 14.887,126.339 13.838,120.623 C13.233,117.567 14.098,108.227 8.736,112.616 C5.295,115.533 5.1,124.831 5.901,128.814 z" fill="#F7BEC1" id="path4901"/>
    <path d="M142.79,35.034 C139.407,32.701 135.177,31.768 130.985,31.505 C116.665,30.565 101.794,29.525 87.556,31.943 C74.257,34.298 66.361,47.197 63.49,52.633 C59.677,60.15 54.814,65.986 56.115,73.436 C56.781,77.428 59.74,81.539 63.652,81.686 C66.627,81.894 69.193,79.975 71.49,78.076 C76.851,73.685 82.086,69.439 87.44,64.916 C100.577,53.959 113.446,55.264 127.387,54.482 C131.674,54.2 135.969,54.051 139.91,52.581 C143.838,50.977 147.389,47.649 148.053,43.434 C148.736,39.486 146.175,37.367 142.79,35.034 z" fill="#F7BEC1" id="path4903"/>
    <path d="M167.59,139.964 C168.414,140.179 169.244,140.528 169.932,140.752 C180.895,143.797 193.014,143.94 203.327,139.092 C213.638,134.242 220.413,126.799 221.862,122.263 C226.176,108.12 224.68,93.553 221.268,80.591 C213.549,51.23 202.2,40.271 202.2,40.271 C205.141,50.17 206.827,59.477 204.614,68.772 C202.509,77.656 196.895,86.367 188.227,89.629 C179.043,93.194 168.608,89.979 158.854,91.025 C152.842,91.69 147.204,93.945 142.022,96.978 C147.973,95.375 163.575,93.272 173.526,103.38 C183.475,113.489 189.569,132.462 167.59,139.964 z" fill="#EB595F" id="path4905"/>
    <path d="M24.301,517.521 L7.901,486.851 L7.801,475.561 L27.301,512.081 z" fill="#F5DB8E" id="polygon4907"/>
    <path d="M44.701,480.931 L7.601,411.252 L7.701,400.352 L47.701,475.481 z" fill="#F5DB8E" id="polygon4909"/>
    <path d="M65.201,444.191 L7.501,335.912 L7.401,324.622 L68.201,438.751 z" fill="#F5DB8E" id="polygon4911"/>
    <path d="M85.601,407.592 L24.801,293.333 L29.401,290.883 L88.701,402.152 z" fill="#F5DB8E" id="polygon4913"/>
    <path d="M7.501,377.752 L7.501,371.832 L147.02,297.533 L142.32,305.912 z" fill="#F5DB8E" id="polygon4915"/>
    <path d="M7.701,418.782 L7.701,412.862 L114.28,356.062 L109.59,364.582 z" fill="#F5DB8E" id="polygon4917"/>
    <path d="M7.401,336.322 L7.401,330.402 L179.87,238.583 L175.18,246.973 z" fill="#F5DB8E" id="polygon4919"/>
    <path d="M39.001,278.133 L40.201,271.463 L207.66,182.403 L207.9,188.173 z" fill="#F5DB8E" id="polygon4921"/>
    <path d="M7.401,257.473 L7.401,251.553 L54.601,226.923 L59.601,230.223 z" fill="#F5DB8E" id="polygon4923"/>
    <path d="M7.401,216.973 L7.501,211.053 L43.201,192.013 L45.801,196.553 z" fill="#F5DB8E" id="polygon4925"/>
    <path d="M7.501,176.873 L7.501,170.823 L21.801,163.283 L23.501,168.293 z" fill="#F5DB8E" id="polygon4927"/>
    <path d="M7.801,459.941 L7.701,454.031 L81.701,414.582 L77.001,423.102 z" fill="#F5DB8E" id="polygon4929"/>
    <path d="M7.901,501.251 L7.901,495.331 L48.601,473.951 L43.901,482.331 z" fill="#F5DB8E" id="polygon4931"/>
    <path d="M106.1,370.862 L46.401,258.943 L49.801,254.143 L109.11,365.412 z" fill="#F5DB8E" id="polygon4933"/>
    <path d="M40.701,270.223 L7.401,207.963 L7.501,196.793 L43.701,264.913 z" fill="#F5DB8E" id="polygon4935"/>
    <path d="M16.901,297.353 L7.401,279.413 L7.501,268.373 L21.301,294.233 z" fill="#F5DB8E" id="polygon4937"/>
    <path d="M126.57,334.262 L75.701,238.853 L79.401,234.573 L129.57,328.822 z" fill="#F5DB8E" id="polygon4939"/>
    <path d="M147.02,297.532 L108.8,225.773 L113.34,223.323 L150.03,292.083 z" fill="#F5DB8E" id="polygon4941"/>
    <path d="M167.48,260.933 L139.86,209.203 L144.54,206.733 L170.49,255.483 z" fill="#F5DB8E" id="polygon4943"/>
    <path d="M187.33,225.183 L173.85,200.233 L178.4,197.783 L190.35,219.863 z" fill="#F5DB8E" id="polygon4945"/>
    <path d="M146,186.053 C134.354,180.765 122.963,181.515 111.604,182.668 C108.399,183.013 105.6,183.466 105,186.6 C104.266,189.743 105.682,192.879 107.727,195.301 C110.795,199.001 112.75,200.083 117.178,201.944 C126.858,205.883 140.694,201.473 151.592,197.392 C161.698,193.496 149.19,187.458 146,186.053 z" fill="#F3A2B1" id="path4951"/>
    <path d="M59.301,179.383 C44.949,167.815 21.727,160.465 21.727,160.465 L21.204,160.633 L21.888,164.893 C22.419,168.896 25.148,173.56 26.021,174.578 C29.867,179.843 35.982,182.804 40.337,187.629 C44.253,191.947 46.386,197.726 46.228,203.522 C46.16,210.659 43.07,218.934 47.863,224.27 C49.896,226.558 53.068,227.695 55.851,229.126 C60.736,231.765 64.769,235.805 67.246,240.754 L67.721,241.798 C71.248,240.221 73.34,239.276 76.262,236.661 C78.924,234.199 80.866,230.975 83.385,228.388 C87.303,224.497 92.678,222.395 98.064,222.444 C105.066,222.522 111.912,226.376 118.845,225.381 C122.978,224.84 126.605,222.717 129.786,219.952 C96.516,225.507 73.652,190.953 59.301,179.383 z" fill="#EB5D64" id="path4953"/>
    <path d="M45.401,197.253 L45.276,197.397 C45.809,199.379 46.217,201.506 46.092,203.668 C46.022,210.803 42.936,219.08 47.725,224.416 C49.762,226.704 52.93,227.84 55.717,229.271 C60.6,231.91 65.112,237.129 67.592,242.079 C67.592,242.079 73.094,239.833 76.133,236.942 C78.789,234.345 80.737,231.256 83.26,228.668 C83.643,228.374 83.893,228.09 84.276,227.795 L84.268,227.66 C55.741,231.69 45.401,197.253 45.401,197.253 z" fill="#E83C51" id="path4955"/>
    <path d="M17.201,301.902 C21.42,298.53 27.111,297.078 31.32,293.572 C39.238,287.132 40.363,275.62 44.871,266.444 C48.307,259.355 54.107,253.457 60.998,249.774 C66.723,246.841 73.209,245.204 77.9,240.857 C80.566,238.395 82.505,235.173 85.027,232.585 C88.941,228.694 94.319,226.591 99.702,226.64 C106.704,226.717 113.55,230.572 120.483,229.577 C134.754,227.696 141.389,207.884 155.796,205.993 C161.532,205.213 167.743,207.629 172.817,205.008 C175.036,203.921 176.653,201.929 178.413,200.066 C183.319,194.899 189.622,190.446 196.472,188.247 C199.376,187.382 205.3,185.378 208.798,185.416 C209.107,183.916 208.124,183.308 204.989,182.707 C201.721,182.114 197.745,183.05 194.583,184.064 C187.597,186.273 181.423,190.582 176.524,195.882 C174.762,197.748 173.135,199.604 170.928,200.825 C165.854,203.447 159.649,201.164 153.905,201.812 C139.626,203.56 132.864,223.515 118.592,225.396 C111.653,226.257 104.813,222.536 97.813,222.458 C92.429,222.41 86.918,224.521 83.136,228.402 C80.482,230.998 78.675,234.214 76.011,236.675 C71.318,241.022 64.835,242.657 59.107,245.592 C52.218,249.275 46.416,255.174 42.98,262.261 C38.474,271.439 37.347,282.95 29.429,289.391 C25.218,292.898 19.521,294.214 15.31,297.72 C8.289,303.43 7.406,312.503 7.29,320.988 C9.081,313.469 12.224,305.996 17.201,301.902 z" fill="#FAE4B5" id="path4957"/>
    <path d="M203.46,139.084 C193.149,143.933 181.032,143.789 170.067,140.744 C169.247,140.529 168.424,140.314 167.727,139.956 C177.153,178.891 137.582,178.672 137.582,178.672 L137.723,178.798 C148.36,180.923 154.196,185.785 157.998,188.361 C164.352,192.921 168.684,195.326 176.934,195.994 C176.934,195.994 191.151,197.345 210.405,187.333 C251.772,165.771 221.999,122.255 221.999,122.255 C220.681,126.782 213.771,134.234 203.46,139.084 z" fill="#EB6277" id="path4959"/>
    <path d="M168.58,144.744 C160.918,140.808 153.822,139.256 145.148,140.366 C134.601,141.598 114.285,149.799 122.976,157.165 C125.111,158.908 131.917,158.057 134.712,157.603 C142.304,156.431 151.448,156.366 158.974,160.31 C160.091,160.909 163.999,163.074 163.999,163.074 C164.571,163.574 165.265,163.932 165.827,164.3 C168.612,159.542 169.805,153.14 168.58,144.744 z" fill="#F3A2B1" id="path4961"/>
    <path d="M213.53,140.704 C203.852,144.974 201.208,147.705 192.926,148.654 C181.307,149.958 169.692,145.206 169.692,145.206 C169.274,144.964 168.86,144.856 168.577,144.605 C169.811,153.136 168.618,159.538 165.972,164.286 C181.626,175.229 196.005,176.974 213.829,167.728 C232.303,158.172 223.079,136.578 213.53,140.704 z" fill="#EF798B" id="path4963"/>
  </g>
</svg>
